{
  "source": "C:\\Users\\Peter\\Desktop\\stuff\\MIUN\\quantitative_research\\video_compression\\videos\\BVI-HD\\BVI-HD_CDVL_videos\\ORIG\\SmokeGuns_1920x1080_60fps.mp4",
  "output": "C:\\Users\\Peter\\Desktop\\stuff\\MIUN\\quantitative_research\\video_compression\\compressed_videos\\BVI-HD\\vp9\\3\\SmokeGuns_1920x1080_60fps_vp9.webm",
  "codec": "vp9",
  "ok": "Input #0, mov,mp4,m4a,3gp,3g2,mj2, from 'C:\\Users\\Peter\\Desktop\\stuff\\MIUN\\quantitative_research\\video_compression\\videos\\BVI-HD\\BVI-HD_CDVL_videos\\ORIG\\SmokeGuns_1920x1080_60fps.mp4':\n  Metadata:\n    major_brand     : isom\n    minor_version   : 512\n    compatible_brands: isomiso2avc1mp41\n    encoder         : Lavf54.28.101\n  Duration: 00:00:05.00, start: 0.000000, bitrate: 384353 kb/s\n  Stream #0:0[0x1](und): Video: h264 (High 4:4:4 Predictive) (avc1 / 0x31637661), yuv420p(progressive), 1920x1080, 384348 kb/s, 60 fps, 60 tbr, 60 tbn (default)\n    Metadata:\n      handler_name    : VideoHandler\n      vendor_id       : [0][0][0][0]\n[out#0/webm @ 0000022785c29700] Codec AVOption b:a (set bitrate (in bits/s)) has not been used for any stream. The most likely reason is either wrong type (e.g. a video option with no video streams) or that it is a private option of some decoder which was not actually used for any stream.\nStream mapping:\n  Stream #0:0 -> #0:0 (h264 (native) -> vp9 (libvpx-vp9))\nPress [q] to stop, [?] for help\n[libvpx-vp9 @ 0000022786200640] v1.15.2-100-g40561f514\nOutput #0, webm, to 'C:\\Users\\Peter\\Desktop\\stuff\\MIUN\\quantitative_research\\video_compression\\compressed_videos\\BVI-HD\\vp9\\3\\SmokeGuns_1920x1080_60fps_vp9.webm':\n  Metadata:\n    major_brand     : isom\n    minor_version   : 512\n    compatible_brands: isomiso2avc1mp41\n    encoder         : Lavf62.3.100\n  Stream #0:0(und): Video: vp9, yuv420p(tv, progressive), 1920x1080, q=2-31, 3000 kb/s, 60 fps, 1k tbn (default)\n    Metadata:\n      encoder         : Lavc62.11.100 libvpx-vp9\n      handler_name    : VideoHandler\n      vendor_id       : [0][0][0][0]\n    Side data:\n      cpb: bitrate max/min/avg: 0/0/0 buffer size: 3000000 vbv_delay: N/A\nframe=    0 fps=0.0 q=0.0 size=       0KiB time=N/A bitrate=N/A speed=N/A elapsed=0:00:00.52    \nframe=    8 fps=7.3 q=47.0 size=       1KiB time=00:00:00.13 bitrate=  38.0kbits/s speed=0.122x elapsed=0:00:01.09    \nframe=   14 fps=8.7 q=45.0 size=       1KiB time=00:00:00.23 bitrate=  21.7kbits/s speed=0.145x elapsed=0:00:01.61    \nframe=   19 fps=8.9 q=44.0 size=       1KiB time=00:00:00.31 bitrate=  16.0kbits/s speed=0.149x elapsed=0:00:02.13    \nframe=   24 fps=9.1 q=44.0 size=       1KiB time=00:00:00.40 bitrate=  12.7kbits/s speed=0.151x elapsed=0:00:02.64    \nframe=   31 fps=9.8 q=41.0 size=       1KiB time=00:00:00.51 bitrate=   9.8kbits/s speed=0.163x elapsed=0:00:03.16    \nframe=   36 fps=9.7 q=41.0 size=       1KiB time=00:00:00.60 bitrate=   8.4kbits/s speed=0.162x elapsed=0:00:03.70    \nframe=   42 fps=9.9 q=40.0 size=       1KiB time=00:00:00.70 bitrate=   7.2kbits/s speed=0.166x elapsed=0:00:04.22    \nframe=   48 fps= 10 q=41.0 size=       1KiB time=00:00:00.80 bitrate=   6.3kbits/s speed=0.169x elapsed=0:00:04.74    \nframe=   53 fps= 10 q=41.0 size=       1KiB time=00:00:00.88 bitrate=   5.7kbits/s speed=0.167x elapsed=0:00:05.29    \nframe=   59 fps= 10 q=43.0 size=       1KiB time=00:00:00.98 bitrate=   5.1kbits/s speed=0.169x elapsed=0:00:05.81    \nframe=   64 fps= 10 q=41.0 size=       1KiB time=00:00:01.06 bitrate=   4.7kbits/s speed=0.168x elapsed=0:00:06.34    \nframe=   71 fps= 10 q=43.0 size=       1KiB time=00:00:01.18 bitrate=   4.3kbits/s speed=0.172x elapsed=0:00:06.86    \nframe=   76 fps= 10 q=42.0 size=       1KiB time=00:00:01.26 bitrate=   4.0kbits/s speed=0.171x elapsed=0:00:07.39    \nframe=   82 fps= 10 q=43.0 size=       1KiB time=00:00:01.36 bitrate=   3.7kbits/s speed=0.172x elapsed=0:00:07.93    \nframe=   87 fps= 10 q=42.0 size=       1KiB time=00:00:01.45 bitrate=   3.5kbits/s speed=0.171x elapsed=0:00:08.46    \nframe=   94 fps= 10 q=44.0 size=       1KiB time=00:00:01.56 bitrate=   3.2kbits/s speed=0.174x elapsed=0:00:09.01    \nframe=   99 fps= 10 q=43.0 size=       1KiB time=00:00:01.65 bitrate=   3.1kbits/s speed=0.173x elapsed=0:00:09.56    \nframe=  105 fps= 10 q=45.0 size=       1KiB time=00:00:01.75 bitrate=   2.9kbits/s speed=0.174x elapsed=0:00:10.08    \nframe=  111 fps= 10 q=44.0 size=       1KiB time=00:00:01.85 bitrate=   2.7kbits/s speed=0.174x elapsed=0:00:10.60    \nframe=  117 fps= 11 q=46.0 size=       1KiB time=00:00:01.95 bitrate=   2.6kbits/s speed=0.175x elapsed=0:00:11.12    \nframe=  123 fps= 11 q=45.0 size=       1KiB time=00:00:02.05 bitrate=   2.5kbits/s speed=0.176x elapsed=0:00:11.65    \nframe=  129 fps= 11 q=25.0 size=       1KiB time=00:00:02.15 bitrate=   2.4kbits/s speed=0.176x elapsed=0:00:12.19    \nframe=  136 fps= 11 q=44.0 size=     512KiB time=00:00:02.26 bitrate=1850.4kbits/s speed=0.178x elapsed=0:00:12.73    \nframe=  142 fps= 11 q=42.0 size=     512KiB time=00:00:02.36 bitrate=1772.2kbits/s speed=0.179x elapsed=0:00:13.25    \nframe=  148 fps= 11 q=44.0 size=     512KiB time=00:00:02.46 bitrate=1700.4kbits/s speed=0.179x elapsed=0:00:13.78    \nframe=  153 fps= 11 q=44.0 size=     512KiB time=00:00:02.55 bitrate=1644.8kbits/s speed=0.178x elapsed=0:00:14.33    \nframe=  160 fps= 11 q=44.0 size=     512KiB time=00:00:02.65 bitrate=1582.8kbits/s speed=0.178x elapsed=0:00:14.85    \nframe=  165 fps= 11 q=44.0 size=     512KiB time=00:00:02.75 bitrate=1525.2kbits/s speed=0.179x elapsed=0:00:15.40    \nframe=  171 fps= 11 q=44.0 size=     512KiB time=00:00:02.85 bitrate=1471.7kbits/s speed=0.179x elapsed=0:00:15.93    \nframe=  176 fps= 11 q=25.0 size=     512KiB time=00:00:02.93 bitrate=1429.9kbits/s speed=0.178x elapsed=0:00:16.43    \nframe=  182 fps= 11 q=45.0 size=     512KiB time=00:00:03.03 bitrate=1382.7kbits/s speed=0.179x elapsed=0:00:16.96    \nframe=  187 fps= 11 q=45.0 size=     512KiB time=00:00:03.11 bitrate=1345.8kbits/s speed=0.178x elapsed=0:00:17.47    \nframe=  194 fps= 11 q=44.0 size=     512KiB time=00:00:03.23 bitrate=1297.2kbits/s speed=0.18x elapsed=0:00:17.99    \nframe=  199 fps= 11 q=45.0 size=     512KiB time=00:00:03.31 bitrate=1264.6kbits/s speed=0.179x elapsed=0:00:18.52    \nframe=  206 fps= 11 q=44.0 size=     512KiB time=00:00:03.43 bitrate=1221.6kbits/s speed=0.18x elapsed=0:00:19.05    \nframe=  211 fps= 11 q=44.0 size=     512KiB time=00:00:03.51 bitrate=1192.7kbits/s speed=0.18x elapsed=0:00:19.58    \nframe=  218 fps= 11 q=42.0 size=     512KiB time=00:00:03.63 bitrate=1154.4kbits/s speed=0.181x elapsed=0:00:20.10    \nframe=  223 fps= 11 q=43.0 size=     512KiB time=00:00:03.71 bitrate=1128.5kbits/s speed=0.18x elapsed=0:00:20.63    \nframe=  230 fps= 11 q=41.0 size=     512KiB time=00:00:03.83 bitrate=1094.2kbits/s speed=0.181x elapsed=0:00:21.14    \nframe=  235 fps= 11 q=41.0 size=     512KiB time=00:00:03.91 bitrate=1070.9kbits/s speed=0.181x elapsed=0:00:21.67    \nframe=  242 fps= 11 q=40.0 size=     512KiB time=00:00:04.03 bitrate=1039.9kbits/s speed=0.182x elapsed=0:00:22.21    \nframe=  247 fps= 11 q=40.0 size=     512KiB time=00:00:04.11 bitrate=1018.9kbits/s speed=0.181x elapsed=0:00:22.74    \nframe=  254 fps= 11 q=39.0 size=     512KiB time=00:00:04.23 bitrate= 990.8kbits/s speed=0.182x elapsed=0:00:23.27    \nframe=  260 fps= 11 q=37.0 size=    1536KiB time=00:00:04.33 bitrate=2903.7kbits/s speed=0.182x elapsed=0:00:23.78    \nframe=  267 fps= 11 q=39.0 size=    1536KiB time=00:00:04.45 bitrate=2827.6kbits/s speed=0.183x elapsed=0:00:24.31    \nframe=  272 fps= 11 q=39.0 size=    1536KiB time=00:00:04.53 bitrate=2775.6kbits/s speed=0.183x elapsed=0:00:24.83    \nframe=  276 fps= 11 q=40.0 size=    1536KiB time=00:00:04.60 bitrate=2735.4kbits/s speed=0.181x elapsed=0:00:25.36    \nframe=  276 fps= 11 q=40.0 size=    1536KiB time=00:00:04.60 bitrate=2735.4kbits/s speed=0.178x elapsed=0:00:25.88    \nframe=  276 fps= 10 q=40.0 size=    1536KiB time=00:00:04.60 bitrate=2735.4kbits/s speed=0.174x elapsed=0:00:26.41    \nframe=  276 fps= 10 q=40.0 size=    1536KiB time=00:00:04.60 bitrate=2735.4kbits/s speed=0.171x elapsed=0:00:26.95    \n[out#0/webm @ 0000022785c29700] video:1855KiB audio:0KiB subtitle:0KiB other streams:0KiB global headers:0KiB muxing overhead: 0.149960%\nframe=  300 fps= 11 q=41.0 Lsize=    1858KiB time=00:00:05.00 bitrate=3044.3kbits/s speed=0.184x elapsed=0:00:27.20    \n",
  "seconds": 27.46118187904358,
  "probe_out": {}
}